<?xml version="1.0" standalone="no"?>
<!DOCTYPE svg PUBLIC "-//W3C//DTD SVG 20010904//EN"
 "http://www.w3.org/TR/2001/REC-SVG-20010904/DTD/svg10.dtd">
<svg version="1.0" xmlns="http://www.w3.org/2000/svg"
 width="987.000000pt" height="987.000000pt" viewBox="0 0 987.000000 987.000000"
 preserveAspectRatio="xMidYMid meet">
<metadata>
Created by potrace 1.11, written by Peter Selinger 2001-2013
</metadata>
<g transform="translate(0.000000,987.000000) scale(0.100000,-0.100000)"
fill="#000000" stroke="none">
<path d="M525 9854 c-40 -7 -110 -33 -163 -59 -130 -65 -223 -157 -287 -287
-82 -167 -75 268 -75 -4578 0 -4846 -7 -4411 75 -4578 81 -163 238 -292 411
-337 52 -13 546 -15 4449 -15 3903 0 4397 2 4449 15 215 56 405 246 461 461
13 52 15 546 15 4454 0 3908 -2 4402 -15 4454 -45 173 -174 330 -337 411 -167
82 269 75 -4581 74 -3632 -1 -4343 -3 -4402 -15z"/>
</g>
</svg>
